<?xml version="1.0" encoding="UTF-8"?> <svg xmlns="http://www.w3.org/2000/svg" xmlns:xlink="http://www.w3.org/1999/xlink" width="448" height="114"><defs><path d="M3.328.405a2.993 2.993 0 100 5.987h23.934a2.994 2.994 0 100-5.987H3.328z" id="a"></path><path d="M3.329.405A2.992 2.992 0 00.335 3.399c0 .607.183 1.167.492 1.641 1.865-1.429 5.704-2.646 13.646-1.466 7.781 1.159 12.623 1.072 15.711.467.046-.207.073-.422.073-.642A2.994 2.994 0 0027.262.405H3.329z" id="c"></path><path d="M3.328.842a2.995 2.995 0 000 5.989h7.934a2.994 2.994 0 100-5.989H3.328z" id="e"></path><path d="M3.329.842A2.994 2.994 0 00.334 3.836c0 .203.021.402.061.596 1.464.628 3.765.73 7.49-.459 3.342-1.068 5.157-.215 6.143 1.007A2.994 2.994 0 0011.262.842H3.329z" id="g"></path><path d="M33.164.169a35.903 35.903 0 00-9.796 1.394C7.9 7.584-1.876 23.797.836 40.828c1.014 6.36 4.046 12.787 8.539 18.098.966 1.14 2 2.255 3.096 3.435 1.109 1.196 2.256 2.432 3.346 3.719.645.76 1.331 1.619 2.008 2.555-1.042-3.438-2.6-6.334-3.995-8.635-.954-1.574-1.936-3.04-2.886-4.457-.852-1.272-1.656-2.471-2.35-3.618-2.97-4.907-4.606-10.484-4.606-15.704 0-16.099 13.097-29.229 29.185-29.271h.237a29.78 29.78 0 012.46.118c11.77 1.011 21.535 9.124 25.188 19.853a35.542 35.542 0 012.919 9.486c1.013 6.358.127 13.41-2.495 19.854-.563 1.386-1.2 2.764-1.875 4.226-.773 1.675-1.553 3.37-2.24 5.103 1.169-2.18 2.551-4.244 3.914-6.275.895-1.337 1.741-2.599 2.516-3.879 3.603-5.952 5.585-12.777 5.585-19.215 0-18.549-14.465-34.323-32.931-35.908a36.44 36.44 0 00-3.032-.144h-.255z" id="i"></path><path d="M19.164.169c-3.395.01-6.678.502-9.796 1.394a35.755 35.755 0 00-9.1 5.193c1.468 2.261 3.683 3.638 7.015 2.769a29.265 29.265 0 012.568-1.014c.458-.239.929-.504 1.421-.817 14.238-9.04 29.043-.678 29.043-.678l.012-.013C35.208 3.294 29.091.882 22.451.313a36.44 36.44 0 00-3.032-.144h-.255z" id="k"></path><path d="M.208 35.221c0 6.439 1.983 13.264 5.586 19.215.774 1.28 1.62 2.543 2.517 3.881.908 1.355 1.808 2.779 2.72 4.196 5.594 8.69 5.146 14.315 5.146 14.315v11.295a2.912 2.912 0 002.914 2.912 2.913 2.913 0 002.913-2.912v-14.17c-.047-.424-.094-.846-.139-1.291a26.952 26.952 0 00-1.04-5.027 42.068 42.068 0 00-2.008-2.555c-1.09-1.287-2.237-2.523-3.346-3.719-1.096-1.18-2.13-2.295-3.096-3.435-4.493-5.311-7.525-11.738-8.539-18.098C1.124 22.797 10.9 6.584 26.368.563 11.29 4.878.208 18.79.208 35.221" id="m"></path><path d="M15.586 10.29c0 5.22-1.636 10.797-4.606 15.706-.693 1.144-1.496 2.343-2.347 3.612-1.557 2.321-3.298 4.921-4.763 7.845-.031.078-.071.187-.119.319C.857 43.033.57 49.023.57 49.023v14.17a2.911 2.911 0 002.913 2.912 2.912 2.912 0 002.914-2.912V51.898s-.333-4.248 3.242-11.054l.741-1.285.543-.963c.483-1.16 1.292-3.225 1.667-4.039.675-1.461 1.313-2.841 1.876-4.226 2.621-6.445 3.506-13.495 2.494-19.854A35.462 35.462 0 0014.042.99a28.833 28.833 0 011.544 9.3" id="o"></path><path d="M.021 3.727V6.8a3.28 3.28 0 003.275 3.276c1.744 0 3.274-1.532 3.274-3.276V3.727A3.279 3.279 0 003.296.452 3.24 3.24 0 00.021 3.727" id="q"></path><path d="M.021 3.982v40.97H6.57V3.982c0-1.727-1.5-3.187-3.274-3.187C1.46.795.021 2.195.021 3.982" id="s"></path></defs><g fill="none" fill-rule="evenodd"><g fill="#FFFFFE"><path d="M347 36.385c0-1.055.868-1.86 1.861-1.86 1.054 0 1.861.805 1.861 1.86V74.35c0 5.4-4.405 9.801-9.801 9.801h-27.482c-5.396 0-9.801-4.402-9.801-9.8V36.384c0-1.055.806-1.86 1.861-1.86.992 0 1.8.805 1.8 1.86V74.35a6.116 6.116 0 006.14 6.143h27.482c3.35 0 6.079-2.73 6.079-6.143V36.385zM367.834 34.525h30.025c1.054 0 1.861.806 1.861 1.86 0 .994-.807 1.862-1.861 1.862h-30.025a6.09 6.09 0 00-6.079 6.079V74.35c0 3.349 2.73 6.08 6.079 6.08h30.025c1.054 0 1.861.869 1.861 1.86 0 1.056-.807 1.86-1.861 1.86h-30.025c-5.396 0-9.801-4.402-9.801-9.8V44.326c0-5.397 4.405-9.801 9.801-9.801M121.469 34.525H95.415c-5.391 0-9.801 4.41-9.801 9.8v37.849c0 .83.489 1.625 1.278 1.883a1.863 1.863 0 002.443-1.766V44.326c0-3.344 2.737-6.08 6.08-6.08h26.054c3.412 0 6.142 2.73 6.142 6.08v16.936c0 3.349-2.73 6.078-6.142 6.078h-19.001a1.861 1.861 0 000 3.723h19c5.392 0 9.803-4.411 9.803-9.801V44.326c0-5.391-4.411-9.801-9.802-9.801M182.939 56.919V44.326c0-5.39-4.411-9.802-9.802-9.802h-26.053c-5.391 0-9.801 4.411-9.801 9.801v37.85c0 .83.49 1.626 1.279 1.884a1.863 1.863 0 002.44-1.767V44.326c0-3.344 2.738-6.08 6.082-6.08h26.053c3.412 0 6.142 2.73 6.142 6.08v12.593c0 3.35-2.73 6.08-6.142 6.08h-19.365a1.862 1.862 0 000 3.722h18.373c3.286 0 5.954 2.729 5.954 6.078v9.493a1.863 1.863 0 002.444 1.765c.79-.258 1.279-1.053 1.279-1.883v-9.375c0-3.04-1.364-5.707-3.535-7.505a9.851 9.851 0 004.652-8.375M211.666 80.43H201.26c-3.344 0-6.079-2.736-6.079-6.08V44.326c0-3.344 2.735-6.08 6.079-6.08h10.406a1.86 1.86 0 000-3.721H201.26c-5.391 0-9.802 4.41-9.802 9.8V74.35c0 5.39 4.41 9.8 9.801 9.8h10.407a1.86 1.86 0 100-3.72M230.85 34.525h-10.406a1.86 1.86 0 100 3.722h10.468c3.344 0 6.08 2.735 6.08 6.079V74.35c0 3.343-2.736 6.08-6.08 6.08h-10.468a1.86 1.86 0 100 3.72h10.468c5.379 0 9.74-4.36 9.74-9.738V44.326c0-5.391-4.41-9.801-9.802-9.801M286.098 34.525h-26.705a1.86 1.86 0 000 3.722h26.705c3.343 0 6.079 2.735 6.079 6.079V74.35c0 3.343-2.736 6.08-6.08 6.08h-26.704a1.861 1.861 0 000 3.72h26.705c5.39 0 9.8-4.41 9.8-9.8V44.326c0-5.391-4.41-9.801-9.8-9.801M252.041 34.525c-.497 0-.993.186-1.304.558-.371.31-.557.806-.557 1.302V82.29a1.86 1.86 0 103.721-.002V36.414c-.117-1.996-1.86-1.89-1.86-1.89M445.93 80.43H415.97a6.09 6.09 0 01-6.08-6.08V44.326a6.088 6.088 0 016.08-6.08h29.962c.993 0 1.799-.867 1.799-1.86 0-1.055-.806-1.861-1.8-1.861H415.97c-5.396 0-9.802 4.405-9.802 9.8V74.35c0 5.398 4.406 9.8 9.802 9.8h29.962c.993 0 1.86-.804 1.86-1.86 0-.991-.867-1.86-1.86-1.86"></path><path d="M445.125 60.703c1.054 0 1.86-.869 1.86-1.86 0-.994-.806-1.862-1.86-1.862h-28.954a1.86 1.86 0 100 3.722h28.954z"></path></g><g transform="translate(21 98)"><mask id="b" fill="#fff"><use xlink:href="#a"></use></mask><path d="M3.328.405a2.993 2.993 0 100 5.987h23.934a2.994 2.994 0 100-5.987H3.328z" fill="#FFF" mask="url(#b)"></path></g><g transform="translate(21 98)"><mask id="d" fill="#fff"><use xlink:href="#c"></use></mask><path d="M3.329.405A2.992 2.992 0 00.335 3.399c0 .607.183 1.167.492 1.641 1.865-1.429 5.704-2.646 13.646-1.466 7.781 1.159 12.623 1.072 15.711.467.046-.207.073-.422.073-.642A2.994 2.994 0 0027.262.405H3.329z" fill="#FFF" mask="url(#d)"></path></g><g transform="translate(29 107)"><mask id="f" fill="#fff"><use xlink:href="#e"></use></mask><path d="M3.328.842a2.995 2.995 0 000 5.989h7.934a2.994 2.994 0 100-5.989H3.328z" fill="#FFF" mask="url(#f)"></path></g><g transform="translate(29 107)"><mask id="h" fill="#fff"><use xlink:href="#g"></use></mask><path d="M3.329.842A2.994 2.994 0 00.334 3.836c0 .203.021.402.061.596 1.464.628 3.765.73 7.49-.459 3.342-1.068 5.157-.215 6.143 1.007A2.994 2.994 0 0011.262.842H3.329z" fill="#FFF" mask="url(#h)"></path></g><g transform="translate(3)"><mask id="j" fill="#fff"><use xlink:href="#i"></use></mask><path d="M33.164.169a35.903 35.903 0 00-9.796 1.394C7.9 7.584-1.876 23.797.836 40.828c1.014 6.36 4.046 12.787 8.539 18.098.966 1.14 2 2.255 3.096 3.435 1.109 1.196 2.256 2.432 3.346 3.719.645.76 1.331 1.619 2.008 2.555-1.042-3.438-2.6-6.334-3.995-8.635-.954-1.574-1.936-3.04-2.886-4.457-.852-1.272-1.656-2.471-2.35-3.618-2.97-4.907-4.606-10.484-4.606-15.704 0-16.099 13.097-29.229 29.185-29.271h.237a29.78 29.78 0 012.46.118c11.77 1.011 21.535 9.124 25.188 19.853a35.542 35.542 0 012.919 9.486c1.013 6.358.127 13.41-2.495 19.854-.563 1.386-1.2 2.764-1.875 4.226-.773 1.675-1.553 3.37-2.24 5.103 1.169-2.18 2.551-4.244 3.914-6.275.895-1.337 1.741-2.599 2.516-3.879 3.603-5.952 5.585-12.777 5.585-19.215 0-18.549-14.465-34.323-32.931-35.908a36.44 36.44 0 00-3.032-.144h-.255z" fill="#FFF" mask="url(#j)"></path></g><g transform="translate(17)"><mask id="l" fill="#fff"><use xlink:href="#k"></use></mask><path d="M19.164.169c-3.395.01-6.678.502-9.796 1.394a35.755 35.755 0 00-9.1 5.193c1.468 2.261 3.683 3.638 7.015 2.769a29.265 29.265 0 012.568-1.014c.458-.239.929-.504 1.421-.817 14.238-9.04 29.043-.678 29.043-.678l.012-.013C35.208 3.294 29.091.882 22.451.313a36.44 36.44 0 00-3.032-.144h-.255z" fill="#FFF" mask="url(#l)"></path></g><g transform="translate(0 1)"><mask id="n" fill="#fff"><use xlink:href="#m"></use></mask><path d="M.208 35.221c0 6.439 1.983 13.264 5.586 19.215.774 1.28 1.62 2.543 2.517 3.881.908 1.355 1.808 2.779 2.72 4.196 5.594 8.69 5.146 14.315 5.146 14.315v11.295a2.912 2.912 0 002.914 2.912 2.913 2.913 0 002.913-2.912v-14.17c-.047-.424-.094-.846-.139-1.291a26.952 26.952 0 00-1.04-5.027 42.068 42.068 0 00-2.008-2.555c-1.09-1.287-2.237-2.523-3.346-3.719-1.096-1.18-2.13-2.295-3.096-3.435-4.493-5.311-7.525-11.738-8.539-18.098C1.124 22.797 10.9 6.584 26.368.563 11.29 4.878.208 18.79.208 35.221" fill="#FFF" mask="url(#n)"></path></g><g transform="translate(50 26)"><mask id="p" fill="#fff"><use xlink:href="#o"></use></mask><path d="M15.586 10.29c0 5.22-1.636 10.797-4.606 15.706-.693 1.144-1.496 2.343-2.347 3.612-1.557 2.321-3.298 4.921-4.763 7.845-.031.078-.071.187-.119.319C.857 43.033.57 49.023.57 49.023v14.17a2.911 2.911 0 002.913 2.912 2.912 2.912 0 002.914-2.912V51.898s-.333-4.248 3.242-11.054l.741-1.285.543-.963c.483-1.16 1.292-3.225 1.667-4.039.675-1.461 1.313-2.841 1.876-4.226 2.621-6.445 3.506-13.495 2.494-19.854A35.462 35.462 0 0014.042.99a28.833 28.833 0 011.544 9.3" fill="#FFF" mask="url(#p)"></path></g><g transform="translate(33 35)"><mask id="r" fill="#fff"><use xlink:href="#q"></use></mask><path d="M.021 3.727V6.8a3.28 3.28 0 003.275 3.276c1.744 0 3.274-1.532 3.274-3.276V3.727A3.279 3.279 0 003.296.452 3.24 3.24 0 00.021 3.727" fill="#FFF" mask="url(#r)"></path></g><g transform="translate(33 47)"><mask id="t" fill="#fff"><use xlink:href="#s"></use></mask><path d="M.021 3.982v40.97H6.57V3.982c0-1.727-1.5-3.187-3.274-3.187C1.46.795.021 2.195.021 3.982" fill="#FFF" mask="url(#t)"></path></g></g></svg> 